<mxfile host="app.diagrams.net" modified="2024-06-17T17:08:55.123Z" agent="Mozilla/5.0 (Windows NT 10.0; Win64; x64) AppleWebKit/537.36 (KHTML, like Gecko) Chrome/126.0.0.0 Safari/537.36" etag="7zFvC-WeAFAj3fxuOdQg" version="24.5.4" type="device">
  <diagram name="Page-1" id="lKm1ytlku9xHj-E1kIiy">
    <mxGraphModel dx="824" dy="1178" grid="1" gridSize="10" guides="1" tooltips="1" connect="1" arrows="1" fold="1" page="1" pageScale="1" pageWidth="827" pageHeight="1169" math="0" shadow="0">
      <root>
        <mxCell id="0" />
        <mxCell id="1" parent="0" />
        <mxCell id="q2GvA-EoYhexoeAIOKSq-8" style="edgeStyle=orthogonalEdgeStyle;rounded=0;orthogonalLoop=1;jettySize=auto;html=1;entryX=0;entryY=0.5;entryDx=0;entryDy=0;" parent="1" source="q2GvA-EoYhexoeAIOKSq-1" target="q2GvA-EoYhexoeAIOKSq-2" edge="1">
          <mxGeometry relative="1" as="geometry" />
        </mxCell>
        <mxCell id="q2GvA-EoYhexoeAIOKSq-1" value="&lt;h1 style=&quot;margin-top: 0px;&quot;&gt;Animation&lt;/h1&gt;&lt;p&gt;&lt;u&gt;id_animation&lt;/u&gt;&amp;nbsp;: varchar(255)&lt;/p&gt;&lt;p&gt;date_creation_animation: datetime(6)&lt;/p&gt;&lt;p&gt;description_animation :&amp;nbsp;&lt;span style=&quot;background-color: initial;&quot;&gt;varchar(255)&lt;/span&gt;&lt;/p&gt;&lt;p&gt;&lt;span style=&quot;background-color: initial;&quot;&gt;difficulte_animation :&amp;nbsp;&lt;/span&gt;&lt;span style=&quot;background-color: initial;&quot;&gt;varchar(255)&lt;/span&gt;&lt;/p&gt;&lt;p&gt;&lt;span style=&quot;background-color: initial;&quot;&gt;duree_animation : double&lt;/span&gt;&lt;/p&gt;&lt;p&gt;&lt;span style=&quot;background-color: initial;&quot;&gt;limite_age : int(11)&lt;/span&gt;&lt;/p&gt;&lt;p&gt;&lt;span style=&quot;background-color: initial;&quot;&gt;nb_place_animation : int(11)&lt;/span&gt;&lt;/p&gt;&lt;p&gt;&lt;span style=&quot;background-color: initial;&quot;&gt;nom_animation :&amp;nbsp;&lt;/span&gt;&lt;span style=&quot;background-color: initial;&quot;&gt;varchar(255)&lt;/span&gt;&lt;/p&gt;&lt;p&gt;&lt;span style=&quot;background-color: initial;&quot;&gt;type_animation :&amp;nbsp;&lt;/span&gt;&lt;span style=&quot;background-color: initial;&quot;&gt;varchar(255)&lt;/span&gt;&lt;/p&gt;" style="text;html=1;whiteSpace=wrap;overflow=hidden;rounded=0;" parent="1" vertex="1">
          <mxGeometry x="70" y="100" width="250" height="280" as="geometry" />
        </mxCell>
        <mxCell id="q2GvA-EoYhexoeAIOKSq-2" value="&lt;h1 style=&quot;margin-top: 0px;&quot;&gt;Activite&lt;/h1&gt;&lt;p&gt;&lt;u&gt;id_activite&lt;/u&gt;&amp;nbsp;: int(11)&lt;/p&gt;&lt;p&gt;date_act : datetime(6)&lt;/p&gt;&lt;p&gt;date_annulation_act : datetime(6)&lt;/p&gt;&lt;p&gt;etat_activite :&amp;nbsp;&lt;span style=&quot;background-color: initial;&quot;&gt;varchar(255)&lt;/span&gt;&lt;/p&gt;&lt;p&gt;&lt;span style=&quot;background-color: initial;&quot;&gt;id_animation :&amp;nbsp;&lt;/span&gt;&lt;span style=&quot;background-color: initial;&quot;&gt;varchar(255)&lt;/span&gt;&lt;/p&gt;&lt;p&gt;&lt;span style=&quot;background-color: initial;&quot;&gt;encadrant_id :&amp;nbsp;&lt;/span&gt;&lt;span style=&quot;background-color: initial;&quot;&gt;varchar(255)&lt;/span&gt;&lt;/p&gt;&lt;p&gt;&lt;span style=&quot;background-color: initial;&quot;&gt;prix_act : int(11)&lt;/span&gt;&lt;/p&gt;&lt;p&gt;&lt;span style=&quot;background-color: initial;&quot;&gt;&lt;br&gt;&lt;/span&gt;&lt;/p&gt;" style="text;html=1;whiteSpace=wrap;overflow=hidden;rounded=0;" parent="1" vertex="1">
          <mxGeometry x="430" y="90" width="280" height="230" as="geometry" />
        </mxCell>
        <mxCell id="q2GvA-EoYhexoeAIOKSq-6" style="edgeStyle=orthogonalEdgeStyle;rounded=0;orthogonalLoop=1;jettySize=auto;html=1;entryX=0;entryY=0.5;entryDx=0;entryDy=0;" parent="1" source="q2GvA-EoYhexoeAIOKSq-3" target="q2GvA-EoYhexoeAIOKSq-4" edge="1">
          <mxGeometry relative="1" as="geometry" />
        </mxCell>
        <mxCell id="q2GvA-EoYhexoeAIOKSq-7" style="edgeStyle=orthogonalEdgeStyle;rounded=0;orthogonalLoop=1;jettySize=auto;html=1;entryX=0;entryY=0.75;entryDx=0;entryDy=0;" parent="1" source="q2GvA-EoYhexoeAIOKSq-3" target="q2GvA-EoYhexoeAIOKSq-2" edge="1">
          <mxGeometry relative="1" as="geometry" />
        </mxCell>
        <mxCell id="q2GvA-EoYhexoeAIOKSq-3" value="&lt;h1 style=&quot;margin-top: 0px;&quot;&gt;Compte&lt;/h1&gt;&lt;p&gt;&lt;u&gt;id_user&lt;/u&gt;&amp;nbsp;:&amp;nbsp;&lt;span style=&quot;background-color: initial;&quot;&gt;varchar(255)&lt;/span&gt;&lt;/p&gt;&lt;p&gt;&lt;span style=&quot;background-color: initial;&quot;&gt;adr_mail_compte :&amp;nbsp;&lt;/span&gt;&lt;span style=&quot;background-color: initial;&quot;&gt;varchar(255)&lt;/span&gt;&lt;/p&gt;&lt;p&gt;&lt;span style=&quot;background-color: initial;&quot;&gt;date_deb_sejour : datetime(6)&lt;/span&gt;&lt;/p&gt;&lt;p&gt;&lt;span style=&quot;background-color: initial;&quot;&gt;date_ferme : datetime(6)&lt;/span&gt;&lt;/p&gt;&lt;p&gt;&lt;span style=&quot;background-color: initial;&quot;&gt;date_fin_sejour : datetime(6)&lt;/span&gt;&lt;/p&gt;&lt;p&gt;&lt;span style=&quot;background-color: initial;&quot;&gt;date_inscrip : datetime(6)&lt;/span&gt;&lt;/p&gt;&lt;p&gt;&lt;span style=&quot;background-color: initial;&quot;&gt;mdp :&amp;nbsp;&lt;/span&gt;&lt;span style=&quot;background-color: initial;&quot;&gt;varchar(255)&lt;/span&gt;&lt;/p&gt;&lt;p&gt;&lt;span style=&quot;background-color: initial;&quot;&gt;nom_compte :&amp;nbsp;&lt;/span&gt;&lt;span style=&quot;background-color: initial;&quot;&gt;varchar(255)&lt;/span&gt;&lt;/p&gt;&lt;p&gt;&lt;span style=&quot;background-color: initial;&quot;&gt;prenom_compte :&amp;nbsp;&lt;/span&gt;&lt;span style=&quot;background-color: initial;&quot;&gt;varchar(255)&lt;/span&gt;&lt;/p&gt;&lt;p&gt;&lt;span style=&quot;background-color: initial;&quot;&gt;tel_compte :&amp;nbsp;&lt;/span&gt;&lt;span style=&quot;background-color: initial;&quot;&gt;varchar(10)&lt;/span&gt;&lt;/p&gt;&lt;p&gt;&lt;span style=&quot;background-color: initial;&quot;&gt;type_profil :&amp;nbsp;&lt;/span&gt;&lt;span style=&quot;background-color: initial;&quot;&gt;varchar(255)&lt;/span&gt;&lt;/p&gt;" style="text;html=1;whiteSpace=wrap;overflow=hidden;rounded=0;" parent="1" vertex="1">
          <mxGeometry x="90" y="510" width="180" height="330" as="geometry" />
        </mxCell>
        <mxCell id="q2GvA-EoYhexoeAIOKSq-9" style="edgeStyle=orthogonalEdgeStyle;rounded=0;orthogonalLoop=1;jettySize=auto;html=1;entryX=1;entryY=0.5;entryDx=0;entryDy=0;" parent="1" source="q2GvA-EoYhexoeAIOKSq-4" target="q2GvA-EoYhexoeAIOKSq-2" edge="1">
          <mxGeometry relative="1" as="geometry" />
        </mxCell>
        <mxCell id="q2GvA-EoYhexoeAIOKSq-4" value="&lt;h1 style=&quot;margin-top: 0px;&quot;&gt;compte_activite&lt;/h1&gt;&lt;p&gt;id_user :&amp;nbsp;&lt;span style=&quot;background-color: initial;&quot;&gt;varchar(255)&lt;/span&gt;&lt;/p&gt;&lt;p&gt;&lt;span style=&quot;background-color: initial;&quot;&gt;id_activite : int(11)&lt;/span&gt;&lt;/p&gt;" style="text;html=1;whiteSpace=wrap;overflow=hidden;rounded=0;" parent="1" vertex="1">
          <mxGeometry x="430" y="570" width="200" height="120" as="geometry" />
        </mxCell>
        <mxCell id="q2GvA-EoYhexoeAIOKSq-5" value="&lt;h1 style=&quot;margin-top: 0px;&quot;&gt;&lt;span style=&quot;background-color: initial;&quot;&gt;activite_seq&lt;/span&gt;&lt;/h1&gt;&lt;h1 style=&quot;margin-top: 0px;&quot;&gt;&lt;span style=&quot;font-size: 12px; font-weight: 400;&quot;&gt;next_val : bigint(20)&lt;/span&gt;&lt;/h1&gt;" style="text;html=1;whiteSpace=wrap;overflow=hidden;rounded=0;" parent="1" vertex="1">
          <mxGeometry x="550" y="800" width="146" height="90" as="geometry" />
        </mxCell>
      </root>
    </mxGraphModel>
  </diagram>
</mxfile>
